<?xml version="1.0" encoding="UTF-8"?>
<svg width="524px" height="484px" viewBox="0 0 524 484" version="1.1" xmlns="http://www.w3.org/2000/svg" xmlns:xlink="http://www.w3.org/1999/xlink">
    <!-- Generator: Sketch 54.1 (76490) - https://sketchapp.com -->
    <title>Your CV is accepted successfully@1x</title>
    <desc>Created with Sketch.</desc>
    <defs>
        <path d="M13.8825931,7.81597009e-14 C2.11134638,14.3889189 -2.17414562,31.8983124 1.02611715,52.5281807 C4.22637991,73.1580489 6.73811714,92.3593547 8.56132883,110.132098 C16.0740288,118.5006 23.5237989,122.684852 30.910639,122.684852 C38.2974791,122.684852 55.2578795,117.717362 81.7918404,107.782383 L66.4830701,20.3315705 C65.4182681,14.2489265 63.6527823,8.31002161 61.2218783,2.63348514 L60.094122,1.0457571e-13 L13.8825931,7.81597009e-14 Z" id="path-1"></path>
        <path d="M-1.42108547e-13,0.964178531 L19.9406445,114.637513 C21.1240109,121.383393 22.9972685,127.989857 25.5309172,134.352866 L66.4363023,237.082707 L84.4726885,231.109743 L52.9965405,110.395949 L50.5182273,33.8222843 C50.1305632,21.8444363 46.597118,10.1796028 40.2729728,2.84217094e-14 L40.2729728,5.68434189e-14 L-1.42108547e-13,0.964178531 Z" id="path-3"></path>
        <path d="M47.9537895,8.50900177 L96.0317816,33.5744644 C111.858263,41.8256006 120.942255,58.9957878 118.859268,76.722037 L106.655121,180.579501 L86.1888004,179.237958 L87.4913044,77.6301875 C57.5688719,64.7716421 35.8259696,55.3116076 22.2625973,49.2500841 C11.7437003,37.1700596 6.33993355,22.1020466 6.05129707,4.04604504 L47.9537895,8.50900177 Z" id="path-5"></path>
    </defs>
    <g id="Page-1" stroke="none" stroke-width="1" fill="none" fill-rule="evenodd">
        <g id="Desktop-HD-Copy-4" transform="translate(-422.000000, -6256.000000)">
            <g id="Your-CV-is-accepted-successfully" transform="translate(410.000000, 6256.000000)">
                <path d="M176.99999,116 L414.5,116 C481.602597,116 536,170.397403 536,237.5 L536,237.5 C536,304.602597 481.602597,359 414.5,359 L17,359 L17,275.99999 C17,187.634436 88.6344358,116 176.99999,116 Z" id="Rectangle" fill="#FEEBD2"></path>
                <path d="M126,10 L171.5,10 C191.658393,10 208,26.3416066 208,46.5 L208,46.5 C208,66.6583934 191.658393,83 171.5,83 L53,83 L53,83 C53,42.6832133 85.6832133,10 126,10 Z" id="Rectangle" fill="#FEEBD2" transform="translate(130.500000, 46.500000) scale(-1, 1) translate(-130.500000, -46.500000) "></path>
                <g id="Group-13" transform="translate(61.500000, 116.500000) scale(-1, 1) translate(-61.500000, -116.500000) translate(18.000000, 96.000000)">
                    <path d="M41.4382009,0 L65.926573,3.55271368e-15 C77.2484104,1.47292589e-15 86.426573,9.17816263 86.426573,20.5 L86.426573,20.5 C86.426573,31.8218374 77.2484104,41 65.926573,41 L0.438200921,41 L0.438200921,41 C0.438200921,18.3563253 18.7945262,4.15957557e-15 41.4382009,0 Z" id="Rectangle" stroke="#18233D" stroke-width="0.799999952" stroke-linecap="round"></path>
                    <g id="Group-3" transform="translate(21.682387, 17.425000)" fill="#18233D">
                        <ellipse id="Oval" cx="3.82022644" cy="3.5875" rx="3.82022644" ry="3.5875"></ellipse>
                        <ellipse id="Oval" cx="20.7383721" cy="3.5875" rx="3.82022644" ry="3.5875"></ellipse>
                        <ellipse id="Oval" cx="37.6565177" cy="3.5875" rx="3.82022644" ry="3.5875"></ellipse>
                    </g>
                </g>
                <g id="Group-5" transform="translate(238.000000, 171.000000)">
                    <ellipse id="Oval" stroke="#18233D" fill="#FFFFFF" stroke-linecap="round" cx="40" cy="40.5" rx="40.5" ry="41"></ellipse>
                    <polyline id="Path-210" stroke="#0ACC94" stroke-width="16" points="18 30.3635254 37.2979485 53.6625 82 4.05"></polyline>
                </g>
                <g id="Group-6" transform="translate(368.545327, 226.008902) scale(-1, 1) rotate(4.000000) translate(-368.545327, -226.008902) translate(242.545327, 14.508902)">
                    <g id="Group-14" transform="translate(67.373869, 316.667024) rotate(23.000000) translate(-67.373869, -316.667024) translate(8.373869, 283.667024)">
                        <path d="M40.7119627,-21.2691438 L39.1558009,-15.5923805 C35.8173297,-3.41388458 36.0956934,9.47301873 39.9569288,21.4959973 L43.0161165,31.0215882 C44.9173692,36.9416418 46.2623297,43.026118 47.0335247,49.1959684 L50.4556642,76.5743745 L49.9636361,80.1271242 C49.3575243,84.5036307 52.414033,88.542841 56.7905394,89.1489528 C57.304192,89.2200897 57.8235442,89.2411163 58.3412663,89.211736 L82.4213633,87.8452102 L73.6799288,84.6280182 C66.0703759,81.8274032 61.0767159,74.506227 61.2465037,66.3994451 L62.5815595,2.65511442 C62.8440498,-9.87789426 53.2181196,-20.4081863 40.7119627,-21.2691438 L40.7119627,-21.2691438 Z" id="Path-20" fill="#FFB391" transform="translate(59.631333, 33.977722) rotate(81.000000) translate(-59.631333, -33.977722) "></path>
                        <path d="M65.6444757,7.57909212 L99.8041785,21.234145 L90.3570584,7.5635467 C84.3847421,7.10382783 79.8192283,6.87496189 76.6605168,6.87694887 C73.5018054,6.87893586 69.8297917,7.11298361 65.6444757,7.57909212 Z" id="Path-195" fill="#CF8B54" transform="translate(82.724327, 14.055541) rotate(-24.000000) translate(-82.724327, -14.055541) "></path>
                        <path d="M-6.44697611,41.9633722 L7.92488362,46.3070878 C8.83511447,46.5821937 9.79601979,46.0673233 10.0711257,45.1570924 C10.28729,44.4418792 10.0174962,43.6688765 9.40324153,43.2434965 L9.40324153,43.2434965 L19.7247802,47.5628162 L26.0965716,50.4783894 L26.0965716,50.4783894 C25.8602587,52.964776 23.6530747,54.7888211 21.1666881,54.5525082 C21.04404,54.5408514 20.9219195,54.5241875 20.8006322,54.5025583 L4.3621129,51.5710626 L4.36520933,54.4576452 L-2.54370101,54.4502826 L-2.54370101,54.4502826 C-6.20657733,51.4574288 -7.74624074,46.5775549 -6.46419221,42.0245132 L-6.44697611,41.9633722 Z" id="Path-26" fill="#4A4EC6" transform="translate(9.593474, 48.268240) rotate(81.000000) translate(-9.593474, -48.268240) "></path>
                    </g>
                    <g id="Group-14" transform="translate(132.972256, 353.535117) rotate(-57.000000) translate(-132.972256, -353.535117) translate(68.472256, 327.035117)">
                        <path d="M62.1456983,-34.3837219 L60.5895365,-28.7069587 C57.2510654,-16.5284627 57.5294291,-3.6415594 61.3906644,8.38141922 L64.4498521,17.9070101 C66.3511048,23.8270636 67.6960654,29.9115399 68.4672603,36.0813903 L71.8893998,63.4597963 L71.1785377,68.5926651 C70.5724258,72.9691716 73.6289345,77.0083819 78.005441,77.6144937 C78.0488411,77.6205043 78.0922898,77.6261583 78.1357828,77.631455 L80.4396038,77.9120218 L84.4841544,-32.8458824 L62.1456983,-34.3837219 Z" id="Path-20" fill="#FFB391" transform="translate(71.379596, 21.764150) rotate(81.000000) translate(-71.379596, -21.764150) "></path>
                        <path d="M125.971679,26.5691299 L111.432954,28.4073884 L107.840002,5.23262146 C108.947918,4.71330302 110.068424,4.22620422 111.200101,3.77158382 L125.971679,26.5691299 Z" id="Combined-Shape" fill="#CF8B54"></path>
                        <path d="M0.660279143,29.5018493 L15.0116238,33.8290999 C15.9237203,34.1041173 16.8860663,33.5876627 17.1610837,32.6755662 C17.3769756,31.9595599 17.1068965,31.1859956 16.4922739,30.7599518 L16.4922739,30.7599518 L26.7968034,35.0685345 L33.1577271,37.977737 L33.1577271,37.977737 C32.9174407,40.4727415 30.7000493,42.3005517 28.2050447,42.0602653 C28.0854056,42.0487432 27.9662715,42.0324731 27.847924,42.0114935 L11.4440547,39.1035516 L11.4428893,41.9931137 L4.5411098,41.9959194 L4.5411098,41.9959194 C0.886422884,39.0053659 -0.647197002,34.1324308 0.636006237,29.5878146 L0.660279143,29.5018493 Z" id="Path-26" fill="#4A4EC6" transform="translate(16.673361, 35.791668) rotate(134.000000) translate(-16.673361, -35.791668) "></path>
                    </g>
                    <g id="Path-224" transform="translate(86.220416, 193.252789)">
                        <mask id="mask-2" fill="white">
                            <use xlink:href="#path-1"></use>
                        </mask>
                        <use id="Mask" fill="#18233D" xlink:href="#path-1"></use>
                        <path d="M8.33722446,7.10542736e-15 C16.9406886,14.086884 20.6369671,31.6130411 19.4260602,52.5784711 C18.2151533,73.5439012 16.4043647,95.390882 13.9936945,118.119414" stroke="#445478" mask="url(#mask-2)" transform="translate(13.993695, 59.059707) scale(-1, 1) translate(-13.993695, -59.059707) "></path>
                    </g>
                    <path d="M100.695148,114.91349 L94.781745,117.393548 L106.326199,136.138217 L114.220782,122.184125 C123.612187,125.408542 128.30789,127.020751 128.30789,127.020751 C128.30789,127.020751 126.001282,122.463806 121.388067,113.349916 L100.695148,114.91349 Z" id="Path-185" stroke="#FFFFFF" stroke-linecap="round"></path>
                    <path d="M88.1966211,133.331348 C84.99926,143.862952 88.9680561,163.836765 100.103009,193.252789 L145.318012,193.252789 L147.371361,159.890636 C153.020293,154.887898 154.214568,149.090976 150.954185,142.499869 C147.693802,135.908763 143.872123,128.356829 139.489149,119.84407 L119.935292,113.349916 C101.973539,116.139267 91.3939821,122.799744 88.1966211,133.331348 Z" id="Path-188" fill="#D7E3FF"></path>
                    <polygon id="Rectangle" stroke="#18233D" stroke-linecap="round" transform="translate(127.062796, 131.828905) rotate(-15.000000) translate(-127.062796, -131.828905) " points="124.541878 119.673381 129.597398 119.670531 129.583715 143.984428 124.528195 143.987279"></polygon>
                    <g id="Group" transform="translate(185.838795, 84.346988) rotate(-65.000000) translate(-185.838795, -84.346988) translate(111.338795, 46.846988)">
                        <g id="Group-2" transform="translate(97.777662, 34.499865) scale(-1, 1) rotate(-76.000000) translate(-97.777662, -34.499865) translate(85.277662, -15.000135)">
                            <path d="M1.82666084,83.1711898 C1.82666084,89.9838702 3.36702597,98.5196536 10.4585501,98.5196536 C17.5500742,98.5196536 21.2444779,86.3433663 19.3972761,71.1841948 C18.1658082,61.0780804 16.4054777,47.78934 14.1162845,31.3179736 L14.314326,31.0892965 C17.6708155,27.2135819 20.2402881,22.7212172 21.8792255,17.863124 L21.8792255,17.863124 L23.9630433,14.589826 C24.2431999,14.1497509 24.1454528,13.5691253 23.7366506,13.245035 L23.7366506,13.245035 C23.3029258,12.9011866 22.7025965,12.8588742 22.224929,13.1384859 L21.2072548,13.7342007 C20.0138486,14.4327835 18.9800523,15.3736636 18.1724954,16.4962001 L16.1136287,19.3581073 L17.7667214,3.95462204 C17.8446845,3.22816303 17.356061,2.56203912 16.6397242,2.41822493 L16.6397242,2.41822493 C15.9373162,2.27720712 15.2512294,2.7242418 15.0964872,3.42375444 L12.6739525,14.3748297 L11.7294967,1.35644803 C11.6740325,0.591929381 11.0376043,-1.40808894e-16 10.2710764,0 L10.2710764,0 C9.50782033,1.40207859e-16 8.87728254,0.595800049 8.83407661,1.35783221 L8.09603504,14.3748297 L5.34180086,4.39109884 C5.14408788,3.67441571 4.4184769,3.2392457 3.69313296,3.40234474 L3.69313296,3.40234474 C2.97265684,3.56434922 2.51252062,4.27098878 2.65578106,4.99542494 C4.12256167,12.4128107 4.75196659,15.9667689 4.54395726,15.6573072 C4.34346311,15.3590261 3.57238396,13.5954383 2.23071979,10.3665439 L2.2307391,10.3665358 C1.99872586,9.80816489 1.38983517,9.50710616 0.805286352,9.66173774 L0.805286352,9.66173774 C0.237906492,9.81182758 -0.105140626,10.38824 0.0335160421,10.9585217 L2.95044177,22.9555596 L4.21421475,30.8196459 C2.62251214,61.1788882 1.82666084,78.6294029 1.82666084,83.1711898 Z" id="Path-112" fill="#FFB391"></path>
                            <path d="M15.8867642,18.654609 C11.1795748,21.0341396 8.8259801,23.1716469 8.8259801,25.0671308" id="Path-113" stroke="#FFFFFF" stroke-linecap="round"></path>
                            <path d="M3.53039204,15.7398263 C6.36889958,14.1006685 9.89929162,13.6137571 14.1215682,14.2790921" id="Path-114" stroke="#FFFFFF" stroke-linecap="round"></path>
                        </g>
                        <path d="M45.7807924,28.8194342 L58.9402635,18.0134919 L76.0485852,32.4254712 L66.1751752,48.0366062 C62.3567409,54.0740433 55.3293712,57.2820841 48.2663531,56.2121021 L7.93035413,50.1015709 L5.196138,21.5448553 L45.7807924,28.8194342 Z" id="Path-197" fill="#D7E3FF" transform="translate(40.622362, 37.214616) rotate(38.000000) translate(-40.622362, -37.214616) "></path>
                        <path d="M50.2015795,33.6078721 L45.2629533,40.3755012" id="Path-10" stroke="#18233D" stroke-linecap="round"></path>
                    </g>
                    <path d="M142.696623,141.860678 L148.842687,125.033723" id="Path-215" stroke="#18233D" stroke-linecap="round" transform="translate(145.769655, 133.447201) scale(-1, 1) translate(-145.769655, -133.447201) "></path>
                    <g id="Group-2" transform="translate(46.116916, 204.535965) scale(-1, 1) rotate(-196.000000) translate(-46.116916, -204.535965) translate(33.616916, 155.035965)" fill="#FFB391">
                        <path d="M2.67644384,83.3073171 C2.67644384,90.1199976 4.21680898,98.6557809 11.3083331,98.6557809 C18.3998573,98.6557809 22.0942609,86.4794936 20.2470591,71.3203221 C19.0155912,61.2142077 17.2552607,47.9254673 14.9660675,31.454101 L15.164109,31.2254239 C18.5205985,27.3497093 21.0900711,22.8573445 22.7290085,17.9992513 L22.7290085,17.9992513 L24.8128263,14.7259533 C25.0929829,14.2858782 24.9952359,13.7052526 24.5864336,13.3811623 L24.5864336,13.3811623 C24.1527088,13.0373139 23.5523795,12.9950015 23.074712,13.2746132 L22.0570378,13.870328 C20.8636316,14.5689109 19.8298353,15.5097909 19.0222784,16.6323275 L16.9634117,19.4942346 L18.6165044,4.09074936 C18.6944675,3.36429035 18.205844,2.69816644 17.4895072,2.55435225 L17.4895072,2.55435225 C16.7870992,2.41333444 16.1010124,2.86036912 15.9462702,3.55988176 L13.5237355,14.510957 L12.5792797,1.49257535 C12.5238155,0.7280567 11.8873873,0.136127319 11.1208594,0.136127319 L11.1208594,0.136127319 C10.3576033,0.136127319 9.72706554,0.731927367 9.68385962,1.49395953 L8.94581804,14.510957 L6.19158387,4.52722616 C5.99387089,3.81054303 5.26825991,3.37537302 4.54291597,3.53847206 L4.54291597,3.53847206 C3.82243984,3.70047654 3.36230363,4.4071161 3.50556406,5.13155226 C4.97234468,12.548938 5.60174959,16.1028962 5.39374027,15.7934345 C5.19324612,15.4951534 4.42216696,13.7315656 3.08050279,10.5026712 L3.08052211,10.5026631 C2.84850886,9.94429221 2.23961818,9.64323348 1.65506936,9.79786506 L1.65506936,9.79786506 C1.0876895,9.9479549 0.744642379,10.5243673 0.883299047,11.094649 L3.80022477,23.0916869 L5.06399775,30.9557732 C3.47229515,61.3150155 2.67644384,78.7655302 2.67644384,83.3073171 Z" id="Path-112"></path>
                    </g>
                    <path d="M97.8481265,131.68658 L69.5489398,148.736948 L44.4413653,147.501685 L34.5568132,166.041023 L48.9166126,172.323397 C53.0449825,174.129548 57.2907139,175.654586 61.6247766,176.888085 L62.3488948,177.094173 C67.0010942,178.418215 71.980527,177.951405 76.3055773,175.785767 L115.951446,155.934299 L97.8481265,131.68658 Z" id="Path-196" fill="#D7E3FF" transform="translate(75.254130, 154.759827) scale(1, -1) rotate(54.000000) translate(-75.254130, -154.759827) "></path>
                    <path d="M75.8513777,163.297429 L66.4008416,155.39038" id="Path-11" stroke="#18233D" stroke-linecap="round"></path>
                    <g id="Group-3" transform="translate(90.088659, 56.642783)">
                        <path d="M5.56389408,57.2674082 C2.07278044,31.7856058 2.88521479,15.9104921 8.0011971,9.642067 C13.1171794,3.37364192 20.7641794,1.48445919 30.9421971,3.97451881 C34.6743524,3.15243006 37.5137835,3.69441432 39.4604905,5.60047158 C42.380551,8.45955747 43.6975568,14.9995505 37.413426,19.789099 C34.1732969,22.2586139 40.3917485,40.5798261 45.0728964,51.30985 C43.4063414,53.9842495 30.236674,55.9701023 5.56389408,57.2674082 Z" id="Path-5" fill="#18233D" transform="translate(24.256376, 30.090016) rotate(7.000000) translate(-24.256376, -30.090016) "></path>
                        <path d="M19.5108123,33.459505 C21.6745067,49.29405 19.8466995,58.7547198 14.0273906,61.8415144 L35.9799449,70.6367327 L38.1517362,59.8417604 C35.7407492,54.6459994 33.8866815,46.5043742 32.5895332,35.4168849 L19.5108123,33.459505 Z" id="Path-2" fill="#FFB391"></path>
                        <path d="M20.5224068,32.6377073 L32.2605846,29.7417822 C32.2864303,29.7564801 32.3123144,29.771216 32.3382367,29.7859899 L34.4402985,45.542104 C27.4252823,41.7585592 22.7859851,37.4570937 20.5224068,32.6377073 Z" id="Combined-Shape" fill="#CF8B54"></path>
                        <path d="M42.7043486,14.8237759 C46.844951,30.5691577 46.5056711,39.6343024 41.6865091,42.01921 C34.457766,45.5965714 21.0277584,35.0247122 19.4274643,33.531774 C15.9719589,34.7187372 13.6032577,34.3314019 12.3213606,32.3697679 C10.3985149,29.427317 10.6557585,25.9203348 16.3644714,25.9203348 C22.0731842,25.9203348 34.4592616,19.6031747 35.7175614,11.6722837 C38.629812,10.4059487 40.9587411,11.456446 42.7043486,14.8237759 Z" id="Path" fill="#FFB391"></path>
                        <path d="M41.5142757,18.5886139 C38.8351601,19.335423 38.3671134,21.2867959 40.1101357,24.4427325 C41.3295962,26.4896702 42.5325152,28.5658303 43.7188929,30.6712129 L41.0211814,30.6712129" id="Path-4" stroke="#18233D" stroke-linecap="round"></path>
                        <path d="M14.0273906,30.6712129 L18.6666879,31.6006436" id="Path-6" stroke="#18233D" stroke-linecap="round"></path>
                        <path d="M28.6827927,21.3856025 C30.8021703,20.3427331 32.564629,20.198645 33.9701687,20.9533381" id="Path-7" stroke="#18233D" stroke-linecap="round" transform="translate(31.326481, 20.931831) rotate(-16.000000) translate(-31.326481, -20.931831) "></path>
                        <ellipse id="Oval" fill="#18233D" cx="34.4402985" cy="23.2357674" rx="1" ry="1"></ellipse>
                        <ellipse id="Oval" fill="#18233D" cx="41.863174" cy="21.376906" rx="1" ry="1"></ellipse>
                        <path d="M38.1517362,34.3889357 L42.7910335,34.3889357 C42.7078793,35.6281766 42.0480208,36.2477971 40.8114582,36.2477971 C39.5748955,36.2477971 38.6883216,35.6281766 38.1517362,34.3889357 Z" id="Path-8" fill="#FFFFFF"></path>
                    </g>
                    <path d="M88.5289026,157.719068 C95.2352962,154.279321 97.4490731,148.941762 95.1702333,141.706392" id="Path-9" stroke="#18233D" stroke-linecap="round"></path>
                </g>
                <path d="M308,80.8248937 C311.362038,80.3653144 313.669629,79.696795 314.922771,78.8193354 C316.175913,77.9418758 317.593358,76.0020973 319.175106,73 C318.776232,76.0549877 319.228869,78.5137403 320.533018,80.3762581 C321.837167,82.2387758 323.992827,83.5050585 327,84.1751063 C323.586597,84.5159445 321.242662,85.132559 319.968196,86.0249496 C318.69373,86.9173403 317.312629,88.9090237 315.824894,92 C315.696694,88.4381146 315.186303,86.0198018 314.29372,84.7450615 C313.401137,83.4703211 311.303231,82.1635986 308,80.8248937 Z" id="Rectangle" fill="#FEBE89"></path>
                <path d="M172,38.2379509 C178.547127,37.3429807 183.040856,36.041127 185.481185,34.3323899 C187.921515,32.6236528 190.681803,28.8461895 193.762049,23 C192.985293,28.9491865 193.866745,33.7372838 196.406403,37.364292 C198.946062,40.9913002 203.143927,43.4572192 209,44.7620491 C202.352846,45.4257867 197.788342,46.6265622 195.306488,48.3643756 C192.824633,50.1021889 190.135121,53.9807304 187.237951,60 C186.988299,53.0636969 185.994379,48.3543508 184.256191,45.8719618 C182.518004,43.3895728 178.432607,40.8449024 172,38.2379509 Z" id="Rectangle" fill="#FEBE89"></path>
                <path d="M462,173.237951 C468.547127,172.342981 473.040856,171.041127 475.481185,169.33239 C477.921515,167.623653 480.681803,163.846189 483.762049,158 C482.985293,163.949186 483.866745,168.737284 486.406403,172.364292 C488.946062,175.9913 493.143927,178.457219 499,179.762049 C492.352846,180.425787 487.788342,181.626562 485.306488,183.364376 C482.824633,185.102189 480.135121,188.98073 477.237951,195 C476.988299,188.063697 475.994379,183.354351 474.256191,180.871962 C472.518004,178.389573 468.432607,175.844902 462,173.237951 Z" id="Rectangle" fill="#FFFFFF"></path>
                <path d="M38,330.531422 C42.9545829,329.854148 46.3552423,328.868961 48.2019781,327.575863 C50.048714,326.282764 52.1375805,323.424143 54.4685777,319 C53.8807625,323.502087 54.5478068,327.125512 56.4697105,329.870275 C58.3916142,332.615038 61.5683774,334.481139 66,335.468578 C60.9697216,335.970866 57.5155022,336.879561 55.6373419,338.194663 C53.7591816,339.509765 51.723875,342.444877 49.5314223,347 C49.3424964,341.750906 48.5903409,338.187076 47.2749557,336.308512 C45.9595706,334.429947 42.8679187,332.504251 38,330.531422 Z" id="Rectangle" fill="#FFFFFF"></path>
                <g id="Group-7" transform="translate(134.869617, 264.250540) rotate(10.000000) translate(-134.869617, -264.250540) translate(40.369617, 26.250540)">
                    <g id="Group-9" transform="translate(155.587158, 389.346003) scale(-1, 1) rotate(-30.000000) translate(-155.587158, -389.346003) translate(136.087158, 376.846003)">
                        <path d="M25.8979977,0 L23.7508888,6.76844711 L5.12392597,20.0388903 L22.8878834,20.0388903 C30.1767187,20.0388903 36.4105788,14.7992094 37.6643167,7.61901012 L38.753483,1.38131788" id="Path-44" fill="#FEBE89"></path>
                        <path d="M0.0605247663,8.87917648 L6.48353776,9.90166714 C10.281619,10.5062903 14.1405391,9.26531774 16.8742451,6.56016682 L16.8742451,6.56016682 L38.9797138,20.9373451 L38.9797138,20.9373451 C37.8531986,23.2654685 35.3104159,24.5544169 32.7667015,24.0867501 L12.5254906,20.365364 L12.5254906,23.8204701 L4.55058881,23.8204701 L4.55058881,23.8204701 C1.32358798,19.6914128 -0.282318187,14.5249294 0.035329199,9.2940835 L0.0605247663,8.87917648 Z" id="Path-26" fill="#18233D" transform="translate(19.489857, 15.377279) scale(-1, 1) translate(-19.489857, -15.377279) "></path>
                    </g>
                    <g id="Group-9" transform="translate(23.948774, 447.703475) scale(-1, 1) rotate(-67.000000) translate(-23.948774, -447.703475) translate(0.448774, 432.203475)">
                        <path d="M33.9229043,0.699587669 L22.5646194,12.3822264 L5.12392597,26.1182843 L24.2385824,26.1182843 C30.3599561,26.1182836 35.8671881,22.3986532 38.1532766,16.7201838 C38.3982246,16.1117516 38.6535288,15.5245462 38.9191891,14.9585674 C40.3686479,11.8705527 42.9883814,7.57799877 46.7783895,2.08090555" id="Path-44" fill="#FEBE89"></path>
                        <path d="M0.0605247663,14.9585674 L6.48353776,15.9810581 C10.281619,16.5856813 14.1405391,15.3447087 16.8742451,12.6395578 L16.8742451,12.6395578 L38.9797138,27.0167361 L38.9797138,27.0167361 C37.8531986,29.3448594 35.3104159,30.6338079 32.7667015,30.166141 L12.5254906,26.444755 L12.5254906,29.899861 L4.55058881,29.899861 L4.55058881,29.899861 C1.32358798,25.7708037 -0.282318187,20.6043203 0.035329199,15.3734744 L0.0605247663,14.9585674 Z" id="Path-26" fill="#18233D" transform="translate(19.489857, 21.456669) scale(-1, 1) translate(-19.489857, -21.456669) "></path>
                    </g>
                    <g id="Path-225-+-Path-226-Mask" transform="translate(16.175221, 200.338415)">
                        <mask id="mask-4" fill="white">
                            <use xlink:href="#path-3"></use>
                        </mask>
                        <use id="Mask" fill="#85A9FF" transform="translate(42.236344, 118.541353) scale(-1, 1) translate(-42.236344, -118.541353) " xlink:href="#path-3"></use>
                        <polygon id="Path-225" fill="#4873DB" opacity="0.218796503" mask="url(#mask-4)" points="67.4479026 95.2437913 59.3992848 21.6920435 76.6713954 40.2260429"></polygon>
                        <polyline id="Path-226" stroke="#FFFFFF" mask="url(#mask-4)" points="66.0308646 39.1321447 53.9179493 124.459171 12.5812772 237.082707"></polyline>
                    </g>
                    <g id="Path-227" transform="translate(56.841320, 192.929570)">
                        <mask id="mask-6" fill="white">
                            <use xlink:href="#path-5"></use>
                        </mask>
                        <use id="Mask" fill="#85A9FF" transform="translate(62.602832, 92.312773) rotate(4.000000) translate(-62.602832, -92.312773) " xlink:href="#path-5"></use>
                        <path d="M43.8065894,8.37302399 L97.6254656,49.1645171 C106.504533,55.8943197 111.089357,66.8712237 109.634842,77.9171489 L95.3037333,186.750878" stroke="#FFFFFF" mask="url(#mask-6)"></path>
                    </g>
                    <g id="Group-4" transform="translate(78.854204, 55.446265)">
                        <path d="M0,68.0790954 C2.16627308,53.4475488 3.24940961,42.0674211 3.24940961,33.9387122 C3.24940961,21.7456487 3.26907492,12.105137 16.4691536,10.6370831 C23.7652205,9.82564703 28.258486,9.5364759 30.3791426,13.3920183 C32.0951879,16.5119414 32.0881518,23.2833072 32.0881518,27.3161303 C34.569011,32.8566803 35.6331267,35.7863381 35.2804988,36.1051038 C34.927871,36.4238695 34.2836048,36.6363269 33.3477005,36.7424762 C33.8728233,42.4879216 33.4529737,45.7502022 32.0881518,46.529318 C30.7233299,47.3084339 27.7110263,47.4806806 23.0512409,47.0460582 C23.0512409,57.2719067 23.0512409,64.2829191 23.0512409,68.0790954 C23.0512409,71.8752716 15.3674939,71.8752716 0,68.0790954 Z" id="Path-216" fill="#FFD1AB"></path>
                        <path d="M2.56133688,47.6218956 L14.595788,47.6218956 L20.0415451,32.1694301 C19.0515463,30.2407581 19.0515463,27.9454354 20.0415451,25.2834619 C21.5265432,21.2905017 23.6768877,21.8177998 23.6768877,28.7883595 C23.6768877,35.7589191 25.8440378,29.9289136 25.8440378,26.3983929 C25.8440378,22.8678722 35.3832968,20.0762821 35.3832968,10.2286165 C35.3832968,3.66350601 31.4811604,1.28000901 23.6768877,3.07812544 C24.0330373,-1.39025004 19.7058513,-0.993721585 10.6953297,4.26771081 C1.68480802,9.5291432 -1.63237577,17.7026928 0.743778286,28.7883595 L2.56133688,47.6218956 Z" id="Path-217" fill="#18233D"></path>
                    </g>
                    <path d="M75.5745062,123.988582 C77.7493271,120.580334 80.8222527,118.565115 84.793283,117.942927 C90.7498283,117.009644 103.317588,112.710652 107.478176,121.807181 L75.5745062,123.988582 Z" id="Path-218" fill="#85A9FF"></path>
                    <g id="Group-2" transform="translate(166.905260, 65.543280) scale(-1, 1) rotate(-6.000000) translate(-166.905260, -65.543280) translate(151.405260, 2.043280)" fill="#FFD1AB">
                        <path d="M2.30580268,106.716261 C2.30580268,115.457555 4.25021294,126.409747 13.2018777,126.409747 C22.1535424,126.409747 26.8170057,110.786455 24.4852741,91.3358478 C22.9307863,78.3687766 20.7087127,61.3181044 17.8190532,40.1838313 L18.0350096,39.9303616 C22.2950601,34.9303074 25.5490892,29.1543776 27.6182506,22.9200257 L27.6182506,22.9200257 L30.2519599,18.7148214 C30.6051157,18.1509427 30.4809531,17.4120699 29.9628872,16.9945942 L29.9628872,16.9945942 C29.4169573,16.5546646 28.655017,16.5006489 28.0524836,16.8591613 L26.7700189,17.6222386 C25.2636228,18.5185569 23.9620457,19.7209661 22.949403,21.1517598 L20.3403103,24.8382263 L22.4296906,5.04882087 C22.5267137,4.12987404 21.9097977,3.28756762 21.0044032,3.10280428 L21.0044032,3.10280428 C20.119428,2.9222079 19.253654,3.48647174 19.0615829,4.3690276 L15.9983907,18.4442243 L14.8041975,1.71239489 C14.7353349,0.747561276 13.9325166,6.81436367e-16 12.9652287,0 L12.9652287,0 C12.0020084,-6.78570759e-16 11.2065113,0.752361062 11.1528665,1.71408634 L10.2196636,18.4442243 L6.73660897,5.61070538 C6.49112648,4.70621076 5.57551367,4.15669507 4.66185935,4.36552022 L4.66185935,4.36552022 C3.7506708,4.57378179 3.16905804,5.46741764 3.34756995,6.3848984 C5.20255466,15.9188853 5.99865709,20.4871715 5.73585892,20.0897605 C5.48244924,19.7065471 4.50693658,17.4383796 2.80932096,13.2852581 L2.80934369,13.2852488 C2.52094265,12.5796919 1.75259593,12.1989727 1.0165168,12.3968953 L1.0165168,12.3968953 C0.298721333,12.5899016 -0.135097826,13.3191214 0.0378181167,14.0420196 L3.72435671,29.4540875 L5.31962337,39.5444311 C3.31040958,78.4981222 2.30580268,100.888732 2.30580268,106.716261 Z" id="Path-112"></path>
                    </g>
                    <path d="M18.7297238,154.236367 L14.8873006,158.774838 C11.2473471,163.074162 9.31179063,168.559829 9.44772678,174.191434 L10.9783572,237.602862 C11.0081744,247.17265 11.6699696,252.592889 12.9637428,253.863577 C14.7091422,255.577834 20.9743388,258.70244 23.1205634,257.899964 C25.2027675,257.121425 26.0478797,254.824923 25.6559,251.010457 C28.6827209,250.260028 27.8376087,245.790829 23.1205634,237.602862 C26.9326701,217.262219 29.2713371,203.367803 30.1365645,195.919615 C31.0017919,188.471426 31.0017919,182.233756 30.1365645,177.206602 L41.8677134,168.595054 L18.7297238,154.236367 Z" id="Path-219" fill="#FFD1AB"></path>
                    <path d="M16.8643604,154.583785 C38.2692949,133.598523 54.5932151,123.105892 65.8361211,123.105892 C82.70048,123.105892 110.258238,120.455354 119.278156,117.185351 C125.291435,115.005349 136.134195,110.975107 151.806437,105.094624 L168.828873,130.951238 L133.034453,155.874356 C130.265127,179.649298 124.006611,195.483883 114.258903,203.378111 L58.4304834,203.378111 L56.5493858,163.490545 L34.5319143,176.545241 L16.8643604,154.583785 Z" id="Path-214" fill="#18233D"></path>
                </g>
                <g id="Group-12" transform="translate(227.000000, 293.000000)">
                    <path d="M0,32.3911071 C15.7316876,24.9445189 27.2371487,14.1474832 34.5163835,0 L62,32.3911071 C49.8263945,49.3205094 35.3062393,58.5234737 18.4395342,60 L0,32.3911071 Z" id="Path-174" fill="#F1F5FF"></path>
                    <path d="M34.557377,12.2033898 L48.7868852,30.5084746" id="Path-183" stroke="#18233D" stroke-linecap="round"></path>
                    <path d="M29.4754098,18.3050847 L38.2418033,29.8818597" id="Path-183" stroke="#18233D" stroke-linecap="round"></path>
                    <path d="M25.4098361,23.3898305 L37.2254098,38.2627119" id="Path-183" stroke="#18233D" stroke-linecap="round"></path>
                    <path d="M19.3114754,28.4745763 L22.8017326,33.1961259" id="Path-183" stroke="#18233D" stroke-linecap="round"></path>
                </g>
                <g id="Group-12" transform="translate(420.000000, 354.000000) scale(-1, 1) translate(-420.000000, -354.000000) translate(389.000000, 324.000000)" stroke="#18233D">
                    <path d="M0.736556751,32.5936779 L18.69037,59.4753171 C35.1721733,57.9411853 49.3908769,48.9329256 61.3653517,32.415956 L34.6161904,0.890448808 C27.3514642,14.6574217 16.0534519,25.2276124 0.736555033,32.5936753 Z" id="Path-174"></path>
                    <path d="M34.557377,12.2033898 L48.7868852,30.5084746" id="Path-183" stroke-linecap="round"></path>
                    <path d="M29.4754098,18.3050847 L38.2418033,29.8818597" id="Path-183" stroke-linecap="round"></path>
                    <path d="M25.4098361,23.3898305 L37.2254098,38.2627119" id="Path-183" stroke-linecap="round"></path>
                    <path d="M19.3114754,28.4745763 L22.8017326,33.1961259" id="Path-183" stroke-linecap="round"></path>
                </g>
                <g id="Group-14" transform="translate(13.000000, 182.000000)" stroke="#18233D">
                    <path d="M0.804006172,30.4341606 L17.5276765,55.4752596 C32.884257,54.0396369 46.13426,45.6448838 57.2965042,30.2565053 L32.3807613,0.890255046 C25.6019319,13.7142454 15.071574,23.564648 0.804004344,30.4341578 Z" id="Path-174" transform="translate(28.999358, 28.000000) scale(-1, 1) translate(-28.999358, -28.000000) "></path>
                    <path d="M10.219055,32.5818182 L22.4008731,19.3454545" id="Path-175" stroke-linecap="round"></path>
                    <path d="M14.279661,33.6 L26.4614792,20.3636364" id="Path-175" stroke-linecap="round"></path>
                    <path d="M24.4311762,41.7454545 L36.6129944,28.5090909" id="Path-175" stroke-linecap="round"></path>
                </g>
                <g id="Group-8" transform="translate(361.000000, 0.000000)">
                    <path d="M27.2600285,32.7132216 C39.9955631,37.4484291 51.6337217,37.9571725 62.1745044,34.2394517 L79.4053835,60.507575 C54.7418587,63.0168133 36.2742216,59.648838 24.0024721,50.4036492 L27.2600285,32.7132216 Z" id="Path-221" stroke="#18233D" stroke-linecap="round"></path>
                    <path d="M3.7359958,-1.13686838e-13 L58.5356231,3.8641056 C40.0829447,27.9409695 32.2388959,45.8662491 35.0034769,57.6399447 C17.558515,50.6231537 6.82424509,42.0356227 2.80066724,31.8773515 C-1.22291061,21.7190803 -0.91113442,11.0932964 3.7359958,-1.13686838e-13 Z" id="Path-220" fill="#F1F5FF"></path>
                    <path d="M7.09970262,11.3681614 L38.1966465,14.6399447" id="Path-222" stroke="#18233D" stroke-linecap="round"></path>
                    <path d="M5.07438616,20.3681614 L27.0574059,23.6399447" id="Path-222" stroke="#18233D" stroke-linecap="round"></path>
                    <path d="M55.3844632,41.0962366 L64.0720699,55.4179758" id="Path-223" stroke="#18233D" stroke-linecap="round"></path>
                    <path d="M46.2705391,41.0962366 L50.9075129,49.4179758" id="Path-223" stroke="#18233D" stroke-linecap="round"></path>
                </g>
            </g>
        </g>
    </g>
</svg>